<svg width="32" height="32" viewBox="0 0 32 32" fill="none" xmlns="http://www.w3.org/2000/svg">
<path fill-rule="evenodd" clip-rule="evenodd" d="M3.99996 4C4.73635 4 5.33329 4.59696 5.33329 5.33333V18.6667C5.33329 20.59 5.33613 21.8983 5.46785 22.8781C5.59443 23.8195 5.81759 24.2555 6.11435 24.5523C6.41111 24.8491 6.84713 25.0723 7.78853 25.1988C8.76829 25.3305 10.0767 25.3333 12 25.3333H28C28.7364 25.3333 29.3333 25.9303 29.3333 26.6667C29.3333 27.4031 28.7364 28 28 28H11.9059C10.1004 28 8.61156 28.0001 7.43321 27.8416C6.19611 27.6753 5.10353 27.3127 4.22873 26.4379C3.35392 25.5631 2.99129 24.4705 2.82496 23.2335C2.66655 22.0551 2.66659 20.5663 2.66663 18.7608V5.33333C2.66663 4.59696 3.26359 4 3.99996 4Z" fill="white"/>
<path d="M27.0493 8.40952C27.4231 8.56431 27.6667 8.92895 27.6667 9.3334V22.6667C27.6667 23.219 27.2189 23.6667 26.6667 23.6667H8C7.44772 23.6667 7 23.219 7 22.6667V18.6667C7 18.4015 7.10536 18.1471 7.29289 17.9596L11.6558 13.5967C12.0599 13.1926 12.4085 12.844 12.7201 12.583C13.0495 12.3071 13.4087 12.0663 13.8521 11.9412C14.3848 11.7909 14.9485 11.7909 15.4812 11.9412C15.9247 12.0663 16.2839 12.3071 16.6132 12.583C16.9249 12.844 17.2735 13.1926 17.6775 13.5967C18.1196 14.0387 18.4352 14.3531 18.6709 14.5506C18.8965 14.7395 19.0031 14.7842 19.0619 14.8007C19.2393 14.8508 19.4273 14.8508 19.6048 14.8007C19.6636 14.7842 19.7701 14.7395 19.9957 14.5506C20.2315 14.3531 20.5175 14.0683 20.9596 13.6263L25.9596 8.62629C26.2456 8.34029 26.6757 8.25475 27.0493 8.40952Z" fill="white"/>
</svg>
