<svg width="32" height="32" viewBox="0 0 32 32" fill="none" xmlns="http://www.w3.org/2000/svg">
<path fill-rule="evenodd" clip-rule="evenodd" d="M18.1674 7.33337C18.1674 4.57195 20.4059 2.33337 23.1674 2.33337C25.9288 2.33337 28.1674 4.57195 28.1674 7.33337C28.1674 10.0948 25.9288 12.3334 23.1674 12.3334C20.4059 12.3334 18.1674 10.0948 18.1674 7.33337Z" fill="white"/>
<path fill-rule="evenodd" clip-rule="evenodd" d="M2.16736 15.3334C2.16736 12.5719 4.40593 10.3334 7.16736 10.3334C9.92879 10.3334 12.1674 12.5719 12.1674 15.3334C12.1674 18.0948 9.92879 20.3334 7.16736 20.3334C4.40593 20.3334 2.16736 18.0948 2.16736 15.3334Z" fill="white"/>
<path fill-rule="evenodd" clip-rule="evenodd" d="M19.5006 24.6666C19.5006 21.9052 21.7391 19.6666 24.5006 19.6666C27.2621 19.6666 29.5006 21.9052 29.5006 24.6666C29.5006 27.4281 27.2621 29.6666 24.5006 29.6666C21.7391 29.6666 19.5006 27.4281 19.5006 24.6666Z" fill="white"/>
<path fill-rule="evenodd" clip-rule="evenodd" d="M17.6638 7.33329C14.0585 7.33329 10.9293 9.30355 9.31861 12.199L6.98822 10.9027C9.05768 7.18243 13.0666 4.66663 17.6638 4.66663C18.252 4.66663 18.8312 4.70787 19.3984 4.78777L19.0264 7.42837C18.5821 7.36577 18.1272 7.33329 17.6638 7.33329ZM27.1661 16.6666C27.1661 14.4609 26.3886 12.4351 25.0837 10.8355L27.1501 9.14984C28.8264 11.2048 29.8328 13.8206 29.8328 16.6666C29.8328 18.732 29.3025 20.6784 28.3689 22.3772L26.032 21.0928C26.7554 19.7762 27.1661 18.2702 27.1661 16.6666ZM8.45645 18.9841C9.50218 23.0058 13.2189 26 17.6638 26C18.6918 26 19.6792 25.8401 20.6029 25.5453L21.4136 28.0857C20.2306 28.4633 18.97 28.6666 17.6638 28.6666C12.0009 28.6666 7.22597 24.8485 5.87561 19.6552L8.45645 18.9841Z" fill="white"/>
</svg>
