<svg width="51" height="79" viewBox="0 0 51 79" fill="none" xmlns="http://www.w3.org/2000/svg">
<path fill-rule="evenodd" clip-rule="evenodd" d="M15.8012 11.1625H28.6978V35.4703C28.6978 41.9339 23.4578 47.1739 16.9941 47.1739H11.4123V15.5514C11.4123 13.1275 13.3773 11.1625 15.8012 11.1625ZM62.0065 31.329C55.5427 31.329 50.3027 36.5688 50.3027 43.0325V67.3403H63.1994C65.6233 67.3403 67.5883 65.3753 67.5883 62.9514V31.329H62.0065ZM43.2817 28.4481C36.818 28.4481 31.578 23.2081 31.578 16.7444V11.1626H63.2004C65.6243 11.1626 67.5893 13.1276 67.5893 15.5515V28.4481H43.2817ZM11.4114 62.9514C11.4114 65.3753 13.3764 67.3403 15.8003 67.3403H47.4227V61.7585C47.4227 55.2947 42.1829 50.0548 35.7192 50.0548H11.4114V62.9514Z" fill="white"/>
</svg>
