<svg width="32" height="32" viewBox="0 0 32 32" fill="none" xmlns="http://www.w3.org/2000/svg">
<path fill-rule="evenodd" clip-rule="evenodd" d="M10.8 1.66663C11.518 1.66663 12.1 2.25001 12.1 2.96965V4.28375C12.8705 4.27267 13.7045 4.27267 14.6049 4.27268H17.3951C18.2955 4.27267 19.1295 4.27267 19.9 4.28375V2.96965C19.9 2.25001 20.482 1.66663 21.2 1.66663C21.918 1.66663 22.5 2.25001 22.5 2.96965V4.39925C22.7351 4.42071 22.9613 4.44579 23.1791 4.47513C24.7392 4.68539 26.0529 5.13517 27.0961 6.18093C28.1395 7.22668 28.5883 8.5434 28.798 10.1072C29 11.6135 29 13.5286 29 15.9046V18.7013C29 21.0773 29 22.9925 28.798 24.4988C28.5883 26.0626 28.1395 27.3793 27.0961 28.425C26.0529 29.4708 24.7392 29.9206 23.1791 30.1309C21.6763 30.3333 19.7656 30.3333 17.3951 30.3333H14.6049C12.2344 30.3333 10.3237 30.3333 8.82097 30.1309C7.26077 29.9206 5.94713 29.4708 4.90381 28.425C3.86049 27.3793 3.41173 26.0626 3.20197 24.4988C2.99993 22.9925 2.99997 21.0774 3 18.7014V15.9046C2.99997 13.5286 2.99993 11.6135 3.20197 10.1072C3.41173 8.5434 3.86049 7.22668 4.90381 6.18093C5.94713 5.13517 7.26077 4.68539 8.82097 4.47513C9.03869 4.44579 9.26499 4.42071 9.5 4.39925V2.96965C9.5 2.25001 10.082 1.66663 10.8 1.66663ZM5.61848 13C5.6006 13.861 5.60001 14.8504 5.60001 16V18.606C5.60001 21.0998 5.60277 22.8392 5.7788 24.1516C5.9498 25.4264 6.26257 26.1014 6.74231 26.5822C7.22203 27.0632 7.89555 27.3766 9.16743 27.5481C10.4767 27.7245 12.212 27.7273 14.7 27.7273H17.3C19.7881 27.7273 21.5233 27.7245 22.8327 27.5481C24.1045 27.3766 24.778 27.0632 25.2577 26.5822C25.7375 26.1014 26.0503 25.4264 26.2212 24.1516C26.3972 22.8392 26.4 21.0998 26.4 18.606V16C26.4 14.8504 26.3995 13.861 26.3816 13H5.61848Z" fill="white"/>
<path fill-rule="evenodd" clip-rule="evenodd" d="M13.3333 17.6978C13.3333 16.9616 13.9302 16.3645 14.6666 16.3645H21.3333C22.0697 16.3645 22.6666 16.9616 22.6666 17.6978C22.6666 18.4342 22.0697 19.0312 21.3333 19.0312H14.6666C13.9302 19.0312 13.3333 18.4342 13.3333 17.6978ZM9.33325 17.6978C9.33325 16.9616 9.93021 16.3645 10.6666 16.3645H10.6786C11.4149 16.3645 12.0119 16.9616 12.0119 17.6978C12.0119 18.4342 11.4149 19.0312 10.6786 19.0312H10.6666C9.93021 19.0312 9.33325 18.4342 9.33325 17.6978ZM9.33325 23.0312C9.33325 22.2949 9.93021 21.6978 10.6666 21.6978H17.3333C18.0697 21.6978 18.6666 22.2949 18.6666 23.0312C18.6666 23.7676 18.0697 24.3645 17.3333 24.3645H10.6666C9.93021 24.3645 9.33325 23.7676 9.33325 23.0312ZM19.9879 23.0312C19.9879 22.2949 20.5849 21.6978 21.3213 21.6978H21.3333C22.0697 21.6978 22.6666 22.2949 22.6666 23.0312C22.6666 23.7676 22.0697 24.3645 21.3333 24.3645H21.3213C20.5849 24.3645 19.9879 23.7676 19.9879 23.0312Z" fill="white"/>
</svg>
