<svg width="32" height="32" viewBox="0 0 32 32" fill="none" xmlns="http://www.w3.org/2000/svg">
<path d="M16.0001 2.33325C17.9857 2.33325 19.9008 2.37475 21.7006 2.45175L21.7892 2.45565C23.3454 2.52217 24.6293 2.57695 25.6785 2.78899C26.7994 3.01553 27.7229 3.43277 28.5365 4.25252C30.1557 5.88408 30.1732 7.93385 30.2801 10.9648C30.3146 11.9453 30.3334 12.9606 30.3334 13.9999C30.3334 15.0393 30.3146 16.0545 30.2801 17.0351C30.1732 20.0659 30.1557 22.1158 28.5365 23.7473C27.7229 24.5671 26.7994 24.9843 25.6785 25.2109C24.6292 25.4229 23.3456 25.4777 21.7892 25.5442L21.7006 25.5481C20.7141 25.5903 19.6929 25.6219 18.6446 25.6418C17.5818 25.6621 17.2978 25.6809 17.0652 25.7694C16.832 25.8583 16.6154 26.0263 15.8307 26.6991L12.9246 29.1914C12.5669 29.4981 12.1106 29.6666 11.6394 29.6666C10.5501 29.6663 9.66704 28.7833 9.66675 27.6939V25.5194C8.35234 25.4611 7.24616 25.3977 6.3217 25.2109C5.20074 24.9843 4.27726 24.5671 3.46363 23.7473C1.84449 22.1158 1.82705 20.0659 1.72013 17.0351C1.68553 16.0545 1.66675 15.0393 1.66675 13.9999C1.66675 12.9606 1.68553 11.9453 1.72013 10.9648C1.82705 7.93387 1.84449 5.88408 3.46363 4.25252C4.27726 3.43277 5.20074 3.01553 6.3217 2.78899C7.37095 2.57695 8.65471 2.52217 10.211 2.45565L10.2996 2.45175C12.0994 2.37475 14.0145 2.33325 16.0001 2.33325ZM10.6785 12.6666C9.94224 12.6668 9.34514 13.2637 9.34514 13.9999C9.34514 14.7362 9.94224 15.3331 10.6785 15.3333H10.6902L10.8269 15.3267C11.4992 15.2585 12.0235 14.6902 12.0235 13.9999C12.0235 13.3096 11.4992 12.7415 10.8269 12.6731L10.6902 12.6666H10.6785ZM16.0053 12.6666C15.2693 12.667 14.6719 13.2638 14.6719 13.9999C14.6719 14.7361 15.2693 15.3329 16.0053 15.3333H16.0183C16.7545 15.333 17.3517 14.7361 17.3517 13.9999C17.3517 13.2637 16.7545 12.6669 16.0183 12.6666H16.0053ZM21.3334 12.6666C20.5972 12.6668 20.0001 13.2637 20.0001 13.9999C20.0001 14.7362 20.5972 15.3331 21.3334 15.3333H21.3452C22.0816 15.3333 22.6785 14.7363 22.6785 13.9999C22.6785 13.2636 22.0816 12.6666 21.3452 12.6666H21.3334Z" fill="white"/>
</svg>
