<svg width="32" height="32" viewBox="0 0 32 32" fill="none" xmlns="http://www.w3.org/2000/svg">
<path d="M17.7982 3.16816C18.5607 3.50947 19.054 4.30043 19.054 5.22052V13.5639C19.054 13.6754 19.0926 13.7488 19.1194 13.7807L19.1204 13.782H22.9711C23.9412 13.782 24.5834 14.4652 24.8414 15.1422C25.1008 15.8232 25.0676 16.6963 24.5451 17.4006L16.5471 28.18C15.9551 28.978 15.0019 29.1899 14.202 28.8319C13.4394 28.4906 12.9461 27.6996 12.9461 26.7795V18.4362C12.9461 18.3247 12.9076 18.2512 12.8808 18.2194L12.8797 18.218H9.02904C8.05885 18.218 7.41683 17.5348 7.15883 16.8579C6.89924 16.177 6.93244 15.3038 7.45499 14.5995L15.453 3.82C16.045 3.02211 16.9982 2.81016 17.7982 3.16816Z" fill="white"/>
</svg>
