<svg width="248" height="79" viewBox="0 0 248 79" fill="none" xmlns="http://www.w3.org/2000/svg">
<path fill-rule="evenodd" clip-rule="evenodd" d="M32.5543 22.6397C32.5543 24.0278 32.959 25.3142 33.6563 26.396L29.8482 28.8503C28.6935 27.0587 28.024 24.924 28.024 22.6397C28.024 16.301 33.1623 11.1625 39.5011 11.1625C45.8397 11.1625 50.9782 16.301 50.9782 22.6397C50.9782 24.924 50.3085 27.0587 49.154 28.8503L45.3458 26.396C46.043 25.3142 46.4478 24.0278 46.4478 22.6397C46.4478 18.8031 43.3377 15.693 39.5011 15.693C35.6645 15.693 32.5543 18.8031 32.5543 22.6397ZM48.713 39.2507C48.713 44.3383 44.5887 48.4627 39.5011 48.4627C34.4135 48.4627 30.2891 44.3383 30.2891 39.2507C30.2891 34.1631 34.4135 30.0388 39.5011 30.0388C44.5887 30.0388 48.713 34.1631 48.713 39.2507ZM33.5053 52.1063C32.8082 53.1881 32.4035 54.4745 32.4035 55.8627C32.4035 59.6993 35.5137 62.8094 39.3501 62.8094C43.1867 62.8094 46.2968 59.6993 46.2968 55.8627C46.2968 54.4745 45.8922 53.1881 45.1949 52.1063L49.003 49.652C50.1576 51.4436 50.8274 53.5783 50.8274 55.8627C50.8274 62.2013 45.6889 67.3398 39.3501 67.3398C33.0115 67.3398 27.873 62.2013 27.873 55.8627C27.873 53.5783 28.5427 51.4436 29.6972 49.652L33.5053 52.1063ZM52.3565 45.0955C53.4384 45.7928 54.7249 46.1975 56.113 46.1975C59.9494 46.1975 63.0596 43.0873 63.0596 39.2507C63.0596 35.4141 59.9494 32.304 56.113 32.304C54.7249 32.304 53.4384 32.7088 52.3565 33.406L49.9024 29.5978C51.6938 28.4433 53.8287 27.7736 56.113 27.7736C62.4516 27.7736 67.5901 32.9121 67.5901 39.2507C67.5901 45.5895 62.4516 50.7278 56.113 50.7278C53.8287 50.7278 51.6938 50.0583 49.9024 48.9036L52.3565 45.0955ZM22.8883 46.1975C24.2764 46.1975 25.5628 45.7928 26.6446 45.0955L29.0989 48.9036C27.3073 50.0583 25.1726 50.7278 22.8883 50.7278C16.5496 50.7278 11.4111 45.5895 11.4111 39.2507C11.4111 32.9121 16.5496 27.7736 22.8883 27.7736C25.1726 27.7736 27.3073 28.4433 29.0989 29.5978L26.6446 33.406C25.5628 32.7088 24.2764 32.304 22.8883 32.304C19.0517 32.304 15.9416 35.4141 15.9416 39.2507C15.9416 43.0873 19.0517 46.1975 22.8883 46.1975ZM53.1839 53.0835L53.2853 53.0605C53.4511 53.0225 53.7443 52.9558 53.8756 52.9337C54.2093 52.8775 54.6719 52.8187 55.1856 52.8098C56.1982 52.7917 57.4762 52.9653 58.3217 53.8108C59.5328 55.0219 59.5274 56.9911 58.3094 58.209C57.0916 59.427 55.1224 59.4324 53.9112 58.2213C53.0657 57.3758 52.8921 56.0977 52.91 55.0851C52.9191 54.5716 52.9779 54.1089 53.0341 53.7751C53.0561 53.6442 53.1228 53.3522 53.1605 53.1863L53.1839 53.0835ZM53.4361 25.412L53.3347 25.3887L53.3117 25.286C53.2738 25.118 53.2071 24.8206 53.1849 24.6877C53.1288 24.3494 53.0701 23.8805 53.061 23.36C53.0431 22.3337 53.2167 21.0382 54.0622 20.1814C55.2733 18.9539 57.2424 18.9595 58.4604 20.1938C59.6782 21.4281 59.6836 23.424 58.4725 24.6515C57.627 25.5084 56.349 25.6843 55.3364 25.6662C54.8229 25.6569 54.3603 25.5974 54.0264 25.5405C53.8952 25.5181 53.602 25.4503 53.4361 25.412ZM25.5158 53.0835L25.4143 53.0605C25.2486 53.0227 24.9552 52.9558 24.8241 52.9337C24.4902 52.8775 24.0276 52.8187 23.5139 52.8098C22.5013 52.7917 21.2233 52.9653 20.3778 53.8108C19.1667 55.0219 19.1723 56.9911 20.3901 58.209C21.6079 59.427 23.5771 59.4324 24.7883 58.2213C25.6338 57.3758 25.8074 56.0977 25.7895 55.0851C25.7804 54.5716 25.7217 54.1089 25.6654 53.7751C25.6432 53.6438 25.5765 53.3508 25.5388 53.1851L25.5158 53.0835ZM25.5651 25.412C25.6104 25.4015 25.6462 25.3932 25.6666 25.3887C25.671 25.3681 25.6792 25.3318 25.6896 25.2858C25.7273 25.1178 25.7942 24.8208 25.8163 24.6877C25.8725 24.3494 25.9312 23.8805 25.9403 23.36C25.9582 22.3337 25.7846 21.0382 24.9391 20.1814C23.7279 18.9539 21.7589 18.9595 20.5409 20.1938C19.3231 21.4281 19.3176 23.424 20.5286 24.6515C21.3743 25.5084 22.6521 25.6843 23.6647 25.6662C24.1784 25.6569 24.641 25.5974 24.9749 25.5405C25.1062 25.5181 25.3994 25.4503 25.5651 25.412Z" fill="white"/>
<path d="M107.699 55.5659C99.1614 55.5659 93.7714 49.682 93.7714 40.1979V40.1772C93.7714 30.6932 99.182 24.8505 107.699 24.8505C114.529 24.8505 119.549 29.1091 120.331 35.1575L120.352 35.3633H115.146L115.044 34.9723C114.18 31.5778 111.567 29.4588 107.699 29.4588C102.515 29.4588 99.2025 33.5939 99.2025 40.1772V40.1979C99.2025 46.8018 102.535 50.9575 107.699 50.9575C111.485 50.9575 114.138 48.9207 115.105 45.2588L115.167 45.0531H120.372L120.331 45.2588C119.57 51.3483 114.529 55.5659 107.699 55.5659ZM133.539 55.4835C127.12 55.4835 122.985 51.2044 122.985 44.1479V44.1067C122.985 37.1118 127.182 32.7916 133.518 32.7916C139.875 32.7916 144.093 37.0707 144.093 44.1067V44.1479C144.093 51.2249 139.937 55.4835 133.539 55.4835ZM133.559 51.3483C136.789 51.3483 138.867 48.715 138.867 44.1479V44.1067C138.867 39.5601 136.769 36.9473 133.518 36.9473C130.329 36.9473 128.21 39.5807 128.21 44.1067V44.1479C128.21 48.7355 130.288 51.3483 133.559 51.3483ZM147.384 55.0515V33.2442H152.507V37.0091H152.61C153.289 34.3758 155.099 32.7916 157.609 32.7916C158.247 32.7916 158.843 32.8945 159.234 32.9973V37.6262C158.802 37.4617 158.02 37.3383 157.156 37.3383C154.256 37.3383 152.507 39.1692 152.507 42.3992V55.0515H147.384ZM170.632 55.4835C164.09 55.4835 160.14 51.1426 160.14 44.2095V44.189C160.14 37.3176 164.151 32.7916 170.385 32.7916C176.618 32.7916 180.487 37.1736 180.487 43.757V45.4028H165.221C165.303 49.2294 167.402 51.4925 170.735 51.4925C173.286 51.4925 174.952 50.1345 175.446 48.6739L175.487 48.53H180.28L180.218 48.7562C179.541 52.1095 176.33 55.4835 170.632 55.4835ZM170.446 36.8034C167.731 36.8034 165.694 38.6342 165.283 41.9877H175.508C175.137 38.5314 173.162 36.8034 170.446 36.8034ZM183.942 55.0515V25.3647H189.064V55.0515H183.942ZM196.143 30.1172C194.537 30.1172 193.283 28.8416 193.283 27.3192C193.283 25.7557 194.537 24.5008 196.143 24.5008C197.747 24.5008 198.982 25.7557 198.982 27.3192C198.982 28.8416 197.747 30.1172 196.143 30.1172ZM193.571 55.0515V33.2442H198.694V55.0515H193.571ZM203.055 55.0515V33.2442H208.177V36.6592H208.281C209.411 34.314 211.634 32.7916 214.947 32.7916C219.739 32.7916 222.476 35.8775 222.476 40.9384V55.0515H217.354V41.9672C217.354 38.8605 215.912 37.1118 212.991 37.1118C210.049 37.1118 208.177 39.2515 208.177 42.3992V55.0515H203.055ZM226.816 55.0515V25.3647H231.939V42.2963H232.042L240.188 33.2442H246.113L237.474 42.6255L246.464 55.0515H240.558L233.668 45.6702L231.939 47.4807V55.0515H226.816Z" fill="white"/>
</svg>
