<svg width="48" height="48" viewBox="0 0 48 48" fill="none" xmlns="http://www.w3.org/2000/svg">
<g clip-path="url(#clip0_114_2102)">
<g filter="url(#filter0_iii_114_2102)">
<mask id="mask0_114_2102" style="mask-type:luminance" maskUnits="userSpaceOnUse" x="0" y="0" width="48" height="48">
<path d="M36 0H12C5.37258 0 0 5.37258 0 12V36C0 42.6274 5.37258 48 12 48H36C42.6274 48 48 42.6274 48 36V12C48 5.37258 42.6274 0 36 0Z" fill="white"/>
</mask>
<g mask="url(#mask0_114_2102)">
<path d="M36 0H12C5.37258 0 0 5.37258 0 12V36C0 42.6274 5.37258 48 12 48H36C42.6274 48 48 42.6274 48 36V12C48 5.37258 42.6274 0 36 0Z" fill="#9061FF"/>
<path d="M48 0H0V48H48V0Z" fill="url(#paint0_linear_114_2102)"/>
<g filter="url(#filter1_d_114_2102)">
<path d="M8.96094 23.9998C8.96094 20.7544 9.98877 17.749 11.7367 15.2915H19.2526V16.6998C16.8695 18.2536 15.2943 20.9428 15.2943 23.9998C15.2943 28.8093 19.1931 32.7082 24.0026 32.7082V39.0415C15.6953 39.0415 8.96094 32.3071 8.96094 23.9998Z" fill="white"/>
<path d="M36.2685 32.7081C38.0164 30.2505 39.0443 27.2451 39.0443 23.9997C39.0443 15.6924 32.3099 8.95801 24.0026 8.95801V15.2914C28.8121 15.2914 32.7109 19.1902 32.7109 23.9997C32.7109 27.0568 31.1357 29.7459 28.7526 31.2997V32.7081H36.2685Z" fill="white"/>
</g>
</g>
<path d="M36 1H12C5.92487 1 1 5.92487 1 12V36C1 42.0751 5.92487 47 12 47H36C42.0751 47 47 42.0751 47 36V12C47 5.92487 42.0751 1 36 1Z" stroke="url(#paint1_linear_114_2102)" stroke-width="2"/>
</g>
</g>
<defs>
<filter id="filter0_iii_114_2102" x="0" y="-3" width="48" height="54" filterUnits="userSpaceOnUse" color-interpolation-filters="sRGB">
<feFlood flood-opacity="0" result="BackgroundImageFix"/>
<feBlend mode="normal" in="SourceGraphic" in2="BackgroundImageFix" result="shape"/>
<feColorMatrix in="SourceAlpha" type="matrix" values="0 0 0 0 0 0 0 0 0 0 0 0 0 0 0 0 0 0 127 0" result="hardAlpha"/>
<feOffset dy="-3"/>
<feGaussianBlur stdDeviation="1.5"/>
<feComposite in2="hardAlpha" operator="arithmetic" k2="-1" k3="1"/>
<feColorMatrix type="matrix" values="0 0 0 0 0 0 0 0 0 0 0 0 0 0 0 0 0 0 0.1 0"/>
<feBlend mode="normal" in2="shape" result="effect1_innerShadow_114_2102"/>
<feColorMatrix in="SourceAlpha" type="matrix" values="0 0 0 0 0 0 0 0 0 0 0 0 0 0 0 0 0 0 127 0" result="hardAlpha"/>
<feOffset dy="3"/>
<feGaussianBlur stdDeviation="1.5"/>
<feComposite in2="hardAlpha" operator="arithmetic" k2="-1" k3="1"/>
<feColorMatrix type="matrix" values="0 0 0 0 1 0 0 0 0 1 0 0 0 0 1 0 0 0 0.1 0"/>
<feBlend mode="normal" in2="effect1_innerShadow_114_2102" result="effect2_innerShadow_114_2102"/>
<feColorMatrix in="SourceAlpha" type="matrix" values="0 0 0 0 0 0 0 0 0 0 0 0 0 0 0 0 0 0 127 0" result="hardAlpha"/>
<feOffset/>
<feGaussianBlur stdDeviation="2"/>
<feComposite in2="hardAlpha" operator="arithmetic" k2="-1" k3="1"/>
<feColorMatrix type="matrix" values="0 0 0 0 0 0 0 0 0 0 0 0 0 0 0 0 0 0 0.2 0"/>
<feBlend mode="normal" in2="effect2_innerShadow_114_2102" result="effect3_innerShadow_114_2102"/>
</filter>
<filter id="filter1_d_114_2102" x="4.21094" y="6.58301" width="39.5834" height="39.5835" filterUnits="userSpaceOnUse" color-interpolation-filters="sRGB">
<feFlood flood-opacity="0" result="BackgroundImageFix"/>
<feColorMatrix in="SourceAlpha" type="matrix" values="0 0 0 0 0 0 0 0 0 0 0 0 0 0 0 0 0 0 127 0" result="hardAlpha"/>
<feOffset dy="2.375"/>
<feGaussianBlur stdDeviation="2.375"/>
<feComposite in2="hardAlpha" operator="out"/>
<feColorMatrix type="matrix" values="0 0 0 0 0.141176 0 0 0 0 0.141176 0 0 0 0 0.141176 0 0 0 0.1 0"/>
<feBlend mode="normal" in2="BackgroundImageFix" result="effect1_dropShadow_114_2102"/>
<feBlend mode="normal" in="SourceGraphic" in2="effect1_dropShadow_114_2102" result="shape"/>
</filter>
<linearGradient id="paint0_linear_114_2102" x1="24" y1="5.36442e-07" x2="26" y2="48" gradientUnits="userSpaceOnUse">
<stop stop-color="white" stop-opacity="0"/>
<stop offset="1" stop-color="white" stop-opacity="0.12"/>
</linearGradient>
<linearGradient id="paint1_linear_114_2102" x1="24" y1="-5.05344e-08" x2="24" y2="48" gradientUnits="userSpaceOnUse">
<stop stop-color="white" stop-opacity="0.12"/>
<stop offset="1" stop-color="white" stop-opacity="0"/>
</linearGradient>
<clipPath id="clip0_114_2102">
<rect width="48" height="48" fill="white"/>
</clipPath>
</defs>
</svg>
