<svg width="32" height="32" viewBox="0 0 32 32" fill="none" xmlns="http://www.w3.org/2000/svg">
<path d="M9.52267 3C10.7026 3 11.8191 3.53265 12.5594 4.44877L14.5313 6.88888H21.2189C22.0845 6.88887 22.8118 6.88885 23.407 6.93735C24.0294 6.98804 24.6209 7.09815 25.1822 7.38339C26.0384 7.81837 26.7345 8.51245 27.1708 9.36615C27.4568 9.92596 27.5672 10.5157 27.6181 11.1363C27.6666 11.7298 27.6666 12.4551 27.6666 13.3182V14.6666C27.6666 15.3826 27.0846 15.963 26.3666 15.963C25.6486 15.963 25.0666 15.3826 25.0666 14.6666V13.3703C25.0666 12.4415 25.0656 11.8228 25.0266 11.3474C24.9889 10.8872 24.9222 10.6766 24.8541 10.5432C24.6672 10.1773 24.3688 9.87983 24.002 9.69341C23.8681 9.62543 23.6569 9.55892 23.1954 9.52132C22.7186 9.48248 22.0982 9.48148 21.1666 9.48148H13.9093C13.5161 9.48148 13.1439 9.30392 12.8971 8.99855L10.5349 6.07551C10.2881 5.77013 9.91597 5.59259 9.52267 5.59259H8.88036C7.91868 5.59259 7.26845 5.59335 6.76467 5.6288C6.27409 5.66332 6.02024 5.72609 5.84091 5.80287C5.22849 6.06504 4.74044 6.55172 4.47751 7.16237C4.40084 7.34045 4.33767 7.59531 4.30296 8.08679C4.26737 8.59043 4.26663 9.239 4.26663 10.1932V25.037C4.26663 25.753 3.6846 26.3333 2.96663 26.3333C2.24865 26.3333 1.66663 25.753 1.66663 25.037V10.1473C1.66661 9.25044 1.6666 8.51017 1.70939 7.90461C1.75375 7.27659 1.84873 6.69619 2.08839 6.13957C2.61424 4.91825 3.59036 3.94491 4.81517 3.42056C5.37261 3.18191 5.95179 3.08697 6.58161 3.04264C7.18784 2.99997 7.93029 2.99999 8.8338 3H9.52267Z" fill="white"/>
<path d="M27.0934 13.8239C28.1988 13.9865 29.1856 14.3487 29.8162 15.2762C30.4478 16.2049 30.4192 17.2546 30.1597 18.339C29.9093 19.3861 29.3873 20.6851 28.7482 22.2759C28.2769 23.4494 27.4426 25.5258 27.0444 26.2694C26.6285 27.0459 26.1554 27.6743 25.4622 28.1415C24.7693 28.6087 24.0086 28.8123 23.1312 28.9082C22.2905 29.0002 21.2568 29.0002 19.987 29.0001H9.10081C7.37914 29.0002 5.97465 29.0002 4.90602 28.843C3.80069 28.6805 2.8139 28.3182 2.18323 27.3907C1.55171 26.4621 1.5803 25.4123 1.83974 24.3279C2.09025 23.2807 3.06219 20.8615 3.70137 19.2707C4.17277 18.0973 4.55687 17.1411 4.95511 16.3975C5.37101 15.621 5.84407 14.9926 6.53731 14.5253C7.23025 14.0582 7.99093 13.8546 8.86827 13.7587C9.70898 13.6667 10.7427 13.6667 12.0125 13.6667H22.8986C24.6202 13.6667 26.0249 13.6667 27.0934 13.8239Z" fill="white"/>
</svg>
