<svg width="32" height="32" viewBox="0 0 32 32" fill="none" xmlns="http://www.w3.org/2000/svg">
<path d="M21.3334 28V25.3333C21.3334 23.9188 20.7715 22.5623 19.7713 21.5621C18.7711 20.5619 17.4146 20 16.0001 20H8.00008C6.58559 20 5.22904 20.5619 4.22885 21.5621C3.22865 22.5623 2.66675 23.9188 2.66675 25.3333V28" stroke="white" stroke-width="2.5" stroke-linecap="round" stroke-linejoin="round"/>
<path d="M12.0001 14.6667C14.9456 14.6667 17.3334 12.2789 17.3334 9.33333C17.3334 6.38781 14.9456 4 12.0001 4C9.05456 4 6.66675 6.38781 6.66675 9.33333C6.66675 12.2789 9.05456 14.6667 12.0001 14.6667Z" stroke="white" stroke-width="2.5" stroke-linecap="round" stroke-linejoin="round"/>
<path d="M29.3335 28V25.3333C29.3326 24.1516 28.9393 23.0037 28.2153 22.0698C27.4913 21.1358 26.4777 20.4688 25.3335 20.1733" stroke="white" stroke-width="2.5" stroke-linecap="round" stroke-linejoin="round"/>
<path d="M21.3335 4.17334C22.4807 4.46707 23.4975 5.13427 24.2237 6.06975C24.9498 7.00523 25.344 8.15578 25.344 9.34001C25.344 10.5242 24.9498 11.6748 24.2237 12.6103C23.4975 13.5457 22.4807 14.2129 21.3335 14.5067" stroke="white" stroke-width="2.5" stroke-linecap="round" stroke-linejoin="round"/>
</svg>
