<svg width="24" height="24" viewBox="0 0 24 24" fill="none" xmlns="http://www.w3.org/2000/svg">
<path d="M14.9999 21.9995V17.9995C15.139 16.7468 14.7798 15.4896 13.9999 14.4995C16.9999 14.4995 19.9999 12.4995 19.9999 8.99951C20.0799 7.74951 19.7299 6.51951 18.9999 5.49951C19.2799 4.34951 19.2799 3.14951 18.9999 1.99951C18.9999 1.99951 17.9999 1.99951 15.9999 3.49951C13.3599 2.99951 10.6399 2.99951 7.99992 3.49951C5.99992 1.99951 4.99992 1.99951 4.99992 1.99951C4.69992 3.14951 4.69992 4.34951 4.99992 5.49951C4.27179 6.51539 3.91839 7.7523 3.99992 8.99951C3.99992 12.4995 6.99992 14.4995 9.99992 14.4995C9.60992 14.9895 9.31991 15.5495 9.14991 16.1495C8.97991 16.7495 8.92992 17.3795 8.99992 17.9995V21.9995" stroke="white" stroke-width="1.23993" stroke-linecap="round" stroke-linejoin="round"/>
<path d="M8.99988 18C4.48988 20 3.99988 16 1.99988 16" stroke="white" stroke-width="1.23993" stroke-linecap="round" stroke-linejoin="round"/>
</svg>
