<svg width="24" height="24" viewBox="0 0 24 24" fill="none" xmlns="http://www.w3.org/2000/svg">
<path d="M16 7.99951C17.5913 7.99951 19.1174 8.63165 20.2426 9.75687C21.3679 10.8821 22 12.4082 22 13.9995V20.9995H18V13.9995C18 13.4691 17.7893 12.9604 17.4142 12.5853C17.0391 12.2102 16.5304 11.9995 16 11.9995C15.4696 11.9995 14.9609 12.2102 14.5858 12.5853C14.2107 12.9604 14 13.4691 14 13.9995V20.9995H10V13.9995C10 12.4082 10.6321 10.8821 11.7574 9.75687C12.8826 8.63165 14.4087 7.99951 16 7.99951Z" stroke="white" stroke-width="1.23993" stroke-linecap="round" stroke-linejoin="round"/>
<path d="M5.99988 8.99951H1.99988V20.9995H5.99988V8.99951Z" stroke="white" stroke-width="1.23993" stroke-linecap="round" stroke-linejoin="round"/>
<path d="M3.99988 5.99951C5.10445 5.99951 5.99988 5.10408 5.99988 3.99951C5.99988 2.89494 5.10445 1.99951 3.99988 1.99951C2.89531 1.99951 1.99988 2.89494 1.99988 3.99951C1.99988 5.10408 2.89531 5.99951 3.99988 5.99951Z" stroke="white" stroke-width="1.23993" stroke-linecap="round" stroke-linejoin="round"/>
</svg>
