<svg width="15" height="15" viewBox="0 0 15 15" fill="none" xmlns="http://www.w3.org/2000/svg">
<g clip-path="url(#clip0_114_1948)">
<path d="M13.5158 6.19961C13.7989 7.58913 13.5971 9.03372 12.9441 10.2925C12.291 11.5512 11.2262 12.5481 9.92712 13.1167C8.62806 13.6854 7.17331 13.7915 5.80547 13.4174C4.43763 13.0433 3.23938 12.2116 2.41054 11.061C1.5817 9.91036 1.17238 8.51036 1.25083 7.09445C1.32928 5.67855 1.89077 4.33234 2.84165 3.28031C3.79253 2.22828 5.07533 1.53403 6.47613 1.31334C7.87692 1.09265 9.31104 1.35885 10.5393 2.06756" stroke="#99A1AF" stroke-width="1.23993" stroke-linecap="round" stroke-linejoin="round"/>
<path d="M5.57971 6.81948L7.4396 8.67936L13.6392 2.47974" stroke="#99A1AF" stroke-width="1.23993" stroke-linecap="round" stroke-linejoin="round"/>
</g>
<defs>
<clipPath id="clip0_114_1948">
<rect width="14.8791" height="14.8791" fill="white"/>
</clipPath>
</defs>
</svg>
