<svg width="57" height="57" viewBox="0 0 57 57" fill="none" xmlns="http://www.w3.org/2000/svg">
<mask id="mask0_114_2402" style="mask-type:luminance" maskUnits="userSpaceOnUse" x="0" y="0" width="57" height="57">
<path fill-rule="evenodd" clip-rule="evenodd" d="M35.1111 0C35.1111 12.2889 26.3333 21.0667 14.0444 21.0667C26.3333 21.0667 35.1111 29.8444 35.1111 42.1333C35.1111 29.8444 43.8889 21.0667 56.1778 21.0667C43.8889 21.0667 35.1111 12.2889 35.1111 0ZM16.3851 23.4073C16.3851 32.9655 9.55795 39.7927 0 39.7927C9.55795 39.7927 16.3851 46.6198 16.3851 56.1778C16.3851 46.6198 23.2123 39.7927 32.7704 39.7927C23.2123 39.7927 16.3851 32.9655 16.3851 23.4073Z" fill="white"/>
</mask>
<g mask="url(#mask0_114_2402)">
<path d="M14.0444 23.4073C27.6261 23.4073 37.4518 13.5817 37.4518 0H32.7704C32.7704 10.9961 25.0405 18.726 14.0444 18.726V23.4073ZM37.4518 42.1333C37.4518 28.5517 27.6261 18.726 14.0444 18.726V23.4073C25.0405 23.4073 32.7704 31.1372 32.7704 42.1333H37.4518ZM56.1778 18.726C42.5961 18.726 32.7704 28.5517 32.7704 42.1333H37.4518C37.4518 31.1372 45.1817 23.4073 56.1778 23.4073V18.726ZM32.7704 0C32.7704 13.5817 42.5961 23.4073 56.1778 23.4073V18.726C45.1817 18.726 37.4518 10.9961 37.4518 0H32.7704ZM0 42.1333C10.8507 42.1333 18.726 34.2583 18.726 23.4073H14.0444C14.0444 31.6727 8.26533 37.4518 0 37.4518V42.1333ZM18.726 56.1778C18.726 45.327 10.8507 37.4518 0 37.4518V42.1333C8.26533 42.1333 14.0444 47.9124 14.0444 56.1778H18.726ZM32.7704 37.4518C21.9195 37.4518 14.0444 45.327 14.0444 56.1778H18.726C18.726 47.9124 24.5051 42.1333 32.7704 42.1333V37.4518ZM14.0444 23.4073C14.0444 34.2583 21.9195 42.1333 32.7704 42.1333V37.4518C24.5051 37.4518 18.726 31.6727 18.726 23.4073H14.0444Z" fill="white"/>
</g>
</svg>
