<svg width="54" height="51" viewBox="0 0 54 51" fill="none" xmlns="http://www.w3.org/2000/svg">
<path opacity="0.4" fill-rule="evenodd" clip-rule="evenodd" d="M34.7877 4.32315C35.5835 2.94483 35.1113 1.18234 33.733 0.38656C32.3547 -0.409215 30.5921 0.0630467 29.7965 1.44137L3.86047 46.3639C3.06466 47.7422 3.53694 49.5046 4.91526 50.3004C6.29367 51.0962 8.05607 50.6239 8.85186 49.2456L34.7877 4.32315ZM41.4323 27.3902C42.291 25.9032 41.8697 24.0525 40.4912 23.2567C39.1129 22.4609 37.2996 23.0213 36.4409 24.5084L27.1139 40.6634C26.2554 42.1504 26.6767 44.0009 28.0552 44.7967C29.4335 45.5925 31.2468 45.0323 32.1053 43.5452L41.4323 27.3902ZM52.1063 37.723C53.4848 38.5188 53.957 40.2812 53.1612 41.6595L50.2793 46.6509C49.4835 48.0294 47.7211 48.5016 46.3428 47.7058C44.9643 46.9099 44.4921 45.1475 45.2881 43.7692L48.1698 38.7778C48.9656 37.3995 50.728 36.9272 52.1063 37.723ZM8.34012 15.5463C9.15364 14.1373 8.69562 12.35 7.31733 11.5542C5.93905 10.7584 4.16225 11.2556 3.34871 12.6646L0.402727 17.7673C-0.410797 19.1763 0.0471218 20.9636 1.42544 21.7594C2.80377 22.5552 4.58058 22.058 5.39412 20.649L8.34012 15.5463Z" fill="white"/>
</svg>
