<svg width="52" height="51" viewBox="0 0 52 51" fill="none" xmlns="http://www.w3.org/2000/svg">
<path fill-rule="evenodd" clip-rule="evenodd" d="M18.732 0.386562C20.1104 1.18239 20.5827 2.94479 19.7869 4.32308L5.37797 29.2801C4.58218 30.6583 2.81971 31.1306 1.44138 30.3348C0.0630623 29.539 -0.409235 27.7766 0.386576 26.3983L14.7955 1.44133C15.5913 0.0630474 17.3537 -0.409214 18.732 0.386562ZM35.1218 6.57721C36.5001 7.37318 36.9724 9.13558 36.1766 10.5139L18.8859 40.4622C18.0901 41.8405 16.3277 42.3128 14.9494 41.517C13.571 40.7212 13.0987 38.9588 13.8945 37.5803L31.1852 7.63213C31.981 6.25384 33.7434 5.78142 35.1218 6.57721ZM50.886 19.6133C51.8145 18.0054 51.4499 16.0565 50.0714 15.2607C48.6931 14.4649 46.8231 15.1234 45.8948 16.7315L29.0843 45.8479C28.156 47.456 28.5206 49.4047 29.899 50.2005C31.2773 50.9963 33.1474 50.3378 34.0757 48.7297L50.886 19.6133Z" fill="white"/>
</svg>
