<svg width="57" height="57" viewBox="0 0 57 57" fill="none" xmlns="http://www.w3.org/2000/svg">
<path fill-rule="evenodd" clip-rule="evenodd" d="M52.6828 24.7653C52.6396 24.9512 52.6057 25.0978 52.5871 25.181C52.503 25.1973 52.3549 25.2275 52.1672 25.2654C51.4813 25.4045 50.2677 25.6506 49.7245 25.7285C48.3429 25.9269 46.4286 26.1225 44.3037 26.1088C40.1143 26.0818 34.8279 25.2393 31.3353 21.6729C26.3321 16.564 26.367 8.45475 31.4134 3.56021C36.4596 -1.3343 44.6064 -1.1606 49.6095 3.94813C53.1022 7.51448 53.8125 12.7954 53.7321 16.9641C53.6912 19.0785 53.4454 20.9778 53.2107 22.3473C53.1185 22.8856 52.8401 24.0867 52.6828 24.7653ZM25.0771 24.7658C25.034 24.951 25 25.0983 24.9816 25.1813C24.8975 25.1977 24.7495 25.2277 24.5618 25.2658C23.8761 25.4048 22.6621 25.6509 22.1189 25.7289C20.7373 25.9273 18.8231 26.1228 16.6981 26.1091C12.5087 26.0821 7.22236 25.2396 3.72961 21.6732C-1.27351 16.5644 -1.2386 8.4551 3.80768 3.56053C8.85397 -1.33398 17.0006 -1.16029 22.0038 3.94845C25.4965 7.51483 26.2068 12.7957 26.1264 16.9643C26.0856 19.0788 25.8398 20.9782 25.6051 22.3475C25.5128 22.8859 25.2344 24.0871 25.0771 24.7658ZM31.2287 30.9673C31.2097 31.0505 31.1755 31.1971 31.132 31.3828C30.9731 32.0612 30.6915 33.2615 30.5979 33.7995C30.3599 35.1685 30.1094 37.0672 30.0634 39.1815C29.9726 43.3499 30.6697 48.6324 34.1536 52.2074C39.144 57.3285 47.2903 57.5222 52.3487 52.6402C57.4072 47.758 57.4621 39.6487 52.4718 34.5277C48.9879 30.9527 43.7037 30.0972 39.5142 30.0598C37.3893 30.0409 35.4747 30.2319 34.0925 30.4268C33.5492 30.5035 32.3349 30.7464 31.6488 30.8839C31.4615 30.9215 31.3126 30.9511 31.2287 30.9673ZM3.53544 31.2087C3.57898 31.0229 3.61334 30.8764 3.63214 30.7931C3.7162 30.777 3.86447 30.7473 4.05237 30.7098C4.73845 30.5723 5.95267 30.3293 6.49601 30.2526C7.87823 30.0577 9.79284 29.8667 11.9178 29.8857C16.1072 29.9231 21.3914 30.7786 24.8752 34.3536C29.8657 39.4745 29.8106 47.5838 24.7523 52.466C19.6938 57.348 11.5475 57.1544 6.55711 52.0333C3.07328 48.4584 2.37606 43.1758 2.46682 39.0074C2.51292 36.893 2.76335 34.9944 3.00151 33.6254C3.09508 33.0873 3.37646 31.8869 3.53544 31.2087Z" fill="white"/>
</svg>
